<?xml version="1.0" encoding="UTF-8"?>
<!DOCTYPE svg PUBLIC "-//W3C//DTD SVG 1.1//EN" "http://www.w3.org/Graphics/SVG/1.1/DTD/svg11.dtd">
<!-- Creator: CorelDRAW 2021 (64-Bit) -->
<svg xmlns="http://www.w3.org/2000/svg" xml:space="preserve" width="252mm" height="294mm" version="1.1" style="shape-rendering:geometricPrecision; text-rendering:geometricPrecision; image-rendering:optimizeQuality; fill-rule:evenodd; clip-rule:evenodd"
viewBox="0 0 25200 29400"
 xmlns:xlink="http://www.w3.org/1999/xlink"
 xmlns:xodm="http://www.corel.com/coreldraw/odm/2003">
 <defs>
  <style type="text/css">
   <![CDATA[
    .str0 {stroke:white;stroke-width:20;stroke-miterlimit:22.9256}
    .fil0 {fill:white}
   ]]>
  </style>
 </defs>
 <g id="Capa_x0020_1">
  <metadata id="CorelCorpID_0Corel-Layer"/>
  <path class="fil0 str0" d="M5726.33 11633.47l11978.96 0c746.33,0 1356.95,610.62 1356.95,1356.95l0 0.01c0,746.33 -610.62,1356.95 -1356.95,1356.95l-12117.75 0 3433.9 3248.83c542.15,512.93 566.05,1376.14 53.13,1918.29l-0.01 0c-512.92,542.15 -1376.14,566.05 -1918.28,53.13l-5675.96 -5370.05c-2.48,-2.35 -4.88,-4.75 -7.33,-7.11 -98.57,-61.87 -190.92,-136.93 -274.39,-225.15l-0.01 -0.01c-535.93,-566.47 -510.96,-1468.42 55.51,-2004.36l5930.69 -5611.04c566.47,-535.94 1468.42,-510.96 2004.35,55.51l0.02 0.01c535.94,566.47 510.96,1468.43 -55.51,2004.36l-3407.32 3223.68z"/>
 </g>
</svg>
