<?xml version="1.0" encoding="UTF-8"?>
<svg xmlns="http://www.w3.org/2000/svg" xmlns:xlink="http://www.w3.org/1999/xlink" width="300px" height="130px" viewBox="0 0 299 130" version="1.1">
<g id="surface1">
<path style=" stroke:none;fill-rule:nonzero;fill:rgb(80%,80%,80%);fill-opacity:1;" d="M 269.796875 53.609375 L 94.3125 53.609375 C 92.761719 53.609375 91.503906 54.867188 91.503906 56.421875 C 91.503906 57.976562 92.761719 59.234375 94.3125 59.234375 L 99.285156 59.234375 L 99.285156 126.550781 C 99.285156 128.105469 100.542969 129.363281 102.09375 129.363281 C 103.644531 129.363281 104.902344 128.105469 104.902344 126.550781 L 104.945312 59.234375 L 245.789062 59.234375 L 258.773438 126.550781 C 258.773438 128.105469 260.03125 129.363281 261.585938 129.363281 C 263.136719 129.363281 264.394531 128.105469 264.394531 126.550781 L 265.210938 59.234375 L 269.796875 59.234375 C 271.347656 59.234375 272.605469 57.976562 272.605469 56.421875 C 272.605469 54.867188 271.347656 53.609375 269.796875 53.609375 Z M 269.796875 53.609375 "/>
<path style=" stroke:none;fill-rule:nonzero;fill:rgb(94.901961%,94.901961%,94.901961%);fill-opacity:1;" d="M 124.730469 41.070312 L 124.730469 52.984375 L 94.925781 52.984375 C 91.636719 53.101562 88.882812 50.527344 88.769531 47.234375 C 88.652344 43.945312 91.226562 41.183594 94.511719 41.070312 C 94.648438 41.066406 94.785156 41.066406 94.925781 41.070312 Z M 124.730469 41.070312 "/>
<path style=" stroke:none;fill-rule:nonzero;fill:rgb(0%,83.137255%,69.019608%);fill-opacity:1;" d="M 125.464844 52.894531 C 125.464844 53.148438 125.257812 53.351562 125.003906 53.351562 L 94.394531 53.351562 C 90.933594 53.351562 88.128906 50.539062 88.128906 47.074219 C 88.128906 43.609375 90.933594 40.796875 94.394531 40.796875 L 125.003906 40.796875 C 125.167969 40.796875 125.320312 40.882812 125.402344 41.023438 C 125.484375 41.167969 125.484375 41.339844 125.402344 41.484375 C 125.320312 41.625 125.167969 41.710938 125.003906 41.710938 L 94.394531 41.710938 C 91.4375 41.714844 89.046875 44.117188 89.046875 47.074219 C 89.046875 50.03125 91.4375 52.429688 94.394531 52.4375 L 125.003906 52.4375 C 125.257812 52.4375 125.464844 52.640625 125.464844 52.894531 Z M 125.464844 52.894531 "/>
<path style=" stroke:none;fill-rule:nonzero;fill:rgb(80%,80%,80%);fill-opacity:1;" d="M 124.730469 43.820312 L 92.699219 43.820312 C 92.648438 43.820312 92.609375 43.78125 92.609375 43.730469 C 92.609375 43.679688 92.648438 43.636719 92.699219 43.636719 L 124.730469 43.636719 C 124.78125 43.636719 124.820312 43.679688 124.820312 43.730469 C 124.820312 43.777344 124.78125 43.820312 124.730469 43.820312 Z M 124.730469 43.820312 "/>
<path style=" stroke:none;fill-rule:nonzero;fill:rgb(80%,80%,80%);fill-opacity:1;" d="M 124.730469 46.019531 L 92.699219 46.019531 C 92.648438 46.019531 92.609375 45.980469 92.609375 45.929688 C 92.609375 45.878906 92.648438 45.835938 92.699219 45.835938 L 124.730469 45.835938 C 124.78125 45.835938 124.820312 45.878906 124.820312 45.929688 C 124.820312 45.980469 124.78125 46.019531 124.730469 46.019531 Z M 124.730469 46.019531 "/>
<path style=" stroke:none;fill-rule:nonzero;fill:rgb(80%,80%,80%);fill-opacity:1;" d="M 124.730469 48.21875 L 92.699219 48.21875 C 92.648438 48.21875 92.609375 48.179688 92.609375 48.128906 C 92.609375 48.078125 92.648438 48.039062 92.699219 48.035156 L 124.730469 48.035156 C 124.78125 48.035156 124.820312 48.078125 124.820312 48.128906 C 124.820312 48.179688 124.78125 48.21875 124.730469 48.21875 Z M 124.730469 48.21875 "/>
<path style=" stroke:none;fill-rule:nonzero;fill:rgb(80%,80%,80%);fill-opacity:1;" d="M 124.730469 50.417969 L 92.699219 50.417969 C 92.648438 50.417969 92.609375 50.378906 92.609375 50.328125 C 92.609375 50.277344 92.648438 50.238281 92.699219 50.234375 L 124.730469 50.234375 C 124.78125 50.238281 124.820312 50.277344 124.820312 50.328125 C 124.820312 50.378906 124.78125 50.417969 124.730469 50.417969 Z M 124.730469 50.417969 "/>
<path style=" stroke:none;fill-rule:nonzero;fill:rgb(94.901961%,94.901961%,94.901961%);fill-opacity:1;" d="M 119.113281 28.515625 L 119.113281 40.433594 L 89.304688 40.433594 C 86.019531 40.546875 83.265625 37.972656 83.148438 34.683594 C 83.035156 31.390625 85.605469 28.632812 88.890625 28.515625 C 89.027344 28.511719 89.167969 28.511719 89.304688 28.515625 Z M 119.113281 28.515625 "/>
<path style=" stroke:none;fill-rule:nonzero;fill:rgb(24.705882%,23.921569%,33.72549%);fill-opacity:1;" d="M 119.84375 40.339844 C 119.84375 40.59375 119.640625 40.796875 119.386719 40.800781 L 88.773438 40.800781 C 85.3125 40.800781 82.503906 37.988281 82.503906 34.519531 C 82.503906 31.054688 85.3125 28.242188 88.773438 28.242188 L 119.386719 28.242188 C 119.640625 28.242188 119.84375 28.445312 119.84375 28.699219 C 119.84375 28.953125 119.640625 29.160156 119.386719 29.160156 L 88.773438 29.160156 C 85.816406 29.160156 83.421875 31.558594 83.421875 34.519531 C 83.421875 37.480469 85.816406 39.882812 88.773438 39.882812 L 119.386719 39.882812 C 119.640625 39.882812 119.84375 40.085938 119.84375 40.339844 Z M 119.84375 40.339844 "/>
<path style=" stroke:none;fill-rule:nonzero;fill:rgb(80%,80%,80%);fill-opacity:1;" d="M 119.113281 31.265625 L 87.082031 31.265625 C 87.03125 31.265625 86.988281 31.226562 86.988281 31.175781 C 86.988281 31.125 87.027344 31.082031 87.078125 31.082031 L 119.113281 31.082031 C 119.164062 31.082031 119.203125 31.125 119.203125 31.175781 C 119.203125 31.226562 119.164062 31.265625 119.113281 31.265625 Z M 119.113281 31.265625 "/>
<path style=" stroke:none;fill-rule:nonzero;fill:rgb(80%,80%,80%);fill-opacity:1;" d="M 119.113281 33.464844 L 87.082031 33.464844 C 87.03125 33.464844 86.988281 33.425781 86.988281 33.375 C 86.988281 33.324219 87.027344 33.285156 87.078125 33.28125 L 119.113281 33.28125 C 119.164062 33.285156 119.203125 33.324219 119.203125 33.375 C 119.203125 33.425781 119.164062 33.464844 119.113281 33.464844 Z M 119.113281 33.464844 "/>
<path style=" stroke:none;fill-rule:nonzero;fill:rgb(80%,80%,80%);fill-opacity:1;" d="M 119.113281 35.667969 L 87.082031 35.667969 C 87.03125 35.667969 86.988281 35.625 86.988281 35.574219 C 86.988281 35.523438 87.027344 35.484375 87.078125 35.484375 L 119.113281 35.484375 C 119.164062 35.484375 119.203125 35.523438 119.203125 35.574219 C 119.203125 35.625 119.164062 35.664062 119.113281 35.667969 Z M 119.113281 35.667969 "/>
<path style=" stroke:none;fill-rule:nonzero;fill:rgb(80%,80%,80%);fill-opacity:1;" d="M 119.113281 37.867188 L 87.082031 37.867188 C 87.03125 37.867188 86.988281 37.824219 86.988281 37.773438 C 86.988281 37.722656 87.027344 37.683594 87.078125 37.683594 L 119.113281 37.683594 C 119.164062 37.683594 119.203125 37.722656 119.203125 37.773438 C 119.203125 37.824219 119.164062 37.867188 119.113281 37.867188 Z M 119.113281 37.867188 "/>
<path style=" stroke:none;fill-rule:nonzero;fill:rgb(80%,80%,80%);fill-opacity:1;" d="M 153.785156 95.773438 L 153.785156 85.382812 C 153.785156 84.425781 153.011719 83.652344 152.058594 83.652344 L 112.726562 83.652344 C 111.769531 83.652344 110.996094 84.425781 110.996094 85.382812 L 110.996094 95.773438 Z M 153.785156 95.773438 "/>
<path style=" stroke:none;fill-rule:nonzero;fill:rgb(80%,80%,80%);fill-opacity:1;" d="M 110.996094 99.667969 L 153.785156 99.667969 L 153.785156 113.085938 L 110.996094 113.085938 Z M 110.996094 99.667969 "/>
<path style=" stroke:none;fill-rule:nonzero;fill:rgb(80%,80%,80%);fill-opacity:1;" d="M 110.996094 116.984375 L 110.996094 127.375 C 110.996094 128.328125 111.769531 129.105469 112.726562 129.105469 L 152.058594 129.105469 C 153.011719 129.105469 153.785156 128.328125 153.785156 127.375 L 153.785156 116.984375 Z M 110.996094 116.984375 "/>
<path style=" stroke:none;fill-rule:nonzero;fill:rgb(100%,100%,100%);fill-opacity:1;" d="M 133.472656 90.144531 C 133.472656 90.863281 132.890625 91.445312 132.175781 91.445312 C 131.460938 91.445312 130.878906 90.863281 130.878906 90.144531 C 130.878906 89.425781 131.460938 88.847656 132.175781 88.847656 C 132.890625 88.847656 133.472656 89.425781 133.472656 90.144531 Z M 133.472656 90.144531 "/>
<path style=" stroke:none;fill-rule:nonzero;fill:rgb(100%,100%,100%);fill-opacity:1;" d="M 133.472656 107.460938 C 133.472656 108.175781 132.890625 108.757812 132.175781 108.757812 C 131.460938 108.757812 130.878906 108.175781 130.878906 107.460938 C 130.878906 106.742188 131.460938 106.160156 132.175781 106.160156 C 132.890625 106.160156 133.472656 106.742188 133.472656 107.460938 Z M 133.472656 107.460938 "/>
<path style=" stroke:none;fill-rule:nonzero;fill:rgb(100%,100%,100%);fill-opacity:1;" d="M 133.542969 124.410156 C 133.542969 125.125 132.960938 125.707031 132.246094 125.707031 C 131.527344 125.707031 130.949219 125.125 130.949219 124.410156 C 130.949219 123.691406 131.527344 123.109375 132.246094 123.109375 C 132.960938 123.109375 133.542969 123.691406 133.542969 124.410156 Z M 133.542969 124.410156 "/>
<path style=" stroke:none;fill-rule:nonzero;fill:rgb(94.901961%,94.901961%,94.901961%);fill-opacity:1;" d="M 148.9375 71.804688 L 148.9375 83.722656 L 119.128906 83.722656 C 115.84375 83.832031 113.089844 81.257812 112.976562 77.96875 C 112.863281 74.683594 115.429688 71.921875 118.714844 71.804688 C 118.851562 71.800781 118.992188 71.800781 119.128906 71.804688 Z M 148.9375 71.804688 "/>
<path style=" stroke:none;fill-rule:nonzero;fill:rgb(24.705882%,23.921569%,33.72549%);fill-opacity:1;" d="M 149.667969 83.628906 C 149.667969 83.882812 149.464844 84.085938 149.210938 84.085938 L 118.597656 84.085938 C 115.136719 84.089844 112.328125 81.28125 112.328125 77.8125 C 112.324219 74.347656 115.128906 71.535156 118.589844 71.53125 L 149.210938 71.53125 C 149.375 71.53125 149.527344 71.617188 149.609375 71.757812 C 149.691406 71.902344 149.691406 72.078125 149.609375 72.21875 C 149.527344 72.359375 149.375 72.449219 149.210938 72.445312 L 118.597656 72.445312 C 115.644531 72.449219 113.25 74.851562 113.25 77.808594 C 113.25 80.769531 115.644531 83.167969 118.597656 83.171875 L 149.210938 83.171875 C 149.464844 83.171875 149.667969 83.375 149.667969 83.628906 Z M 149.667969 83.628906 "/>
<path style=" stroke:none;fill-rule:nonzero;fill:rgb(80%,80%,80%);fill-opacity:1;" d="M 148.9375 74.554688 L 116.90625 74.554688 C 116.855469 74.554688 116.8125 74.515625 116.8125 74.464844 C 116.8125 74.414062 116.851562 74.371094 116.902344 74.371094 L 148.9375 74.371094 C 148.984375 74.371094 149.027344 74.414062 149.027344 74.464844 C 149.027344 74.515625 148.984375 74.554688 148.9375 74.554688 Z M 148.9375 74.554688 "/>
<path style=" stroke:none;fill-rule:nonzero;fill:rgb(80%,80%,80%);fill-opacity:1;" d="M 148.9375 76.753906 L 116.90625 76.753906 C 116.855469 76.753906 116.8125 76.714844 116.8125 76.664062 C 116.8125 76.613281 116.851562 76.574219 116.902344 76.570312 L 148.9375 76.570312 C 148.984375 76.570312 149.027344 76.613281 149.027344 76.664062 C 149.027344 76.714844 148.984375 76.753906 148.9375 76.753906 Z M 148.9375 76.753906 "/>
<path style=" stroke:none;fill-rule:nonzero;fill:rgb(80%,80%,80%);fill-opacity:1;" d="M 148.9375 78.953125 L 116.90625 78.953125 C 116.855469 78.957031 116.8125 78.914062 116.8125 78.863281 C 116.8125 78.8125 116.851562 78.773438 116.902344 78.773438 L 148.9375 78.773438 C 148.984375 78.773438 149.027344 78.8125 149.027344 78.863281 C 149.027344 78.914062 148.984375 78.953125 148.9375 78.953125 Z M 148.9375 78.953125 "/>
<path style=" stroke:none;fill-rule:nonzero;fill:rgb(80%,80%,80%);fill-opacity:1;" d="M 148.9375 81.15625 L 116.90625 81.15625 C 116.855469 81.15625 116.8125 81.113281 116.8125 81.0625 C 116.8125 81.011719 116.851562 80.972656 116.902344 80.972656 L 148.9375 80.972656 C 148.984375 80.972656 149.027344 81.011719 149.027344 81.0625 C 149.027344 81.113281 148.984375 81.152344 148.9375 81.15625 Z M 148.9375 81.15625 "/>
<path style=" stroke:none;fill-rule:nonzero;fill:rgb(24.705882%,23.921569%,33.72549%);fill-opacity:1;" d="M 113.929688 24.542969 L 100.347656 24.542969 C 100.21875 24.542969 100.09375 24.570312 99.976562 24.628906 L 96.550781 26.347656 C 96.320312 26.445312 96.167969 26.671875 96.167969 26.921875 C 96.167969 27.171875 96.320312 27.398438 96.550781 27.5 L 99.976562 29.21875 C 100.09375 29.273438 100.21875 29.304688 100.347656 29.304688 L 113.929688 29.304688 C 114.316406 29.324219 114.652344 29.03125 114.679688 28.640625 L 114.679688 25.203125 C 114.652344 24.8125 114.316406 24.519531 113.929688 24.542969 Z M 113.929688 24.542969 "/>
<path style=" stroke:none;fill-rule:nonzero;fill:rgb(0%,83.137255%,69.019608%);fill-opacity:1;" d="M 114.679688 25.203125 L 114.679688 28.640625 C 114.652344 29.03125 114.316406 29.324219 113.929688 29.304688 L 111.222656 29.304688 L 111.222656 24.542969 L 113.929688 24.542969 C 114.316406 24.519531 114.652344 24.8125 114.679688 25.203125 Z M 114.679688 25.203125 "/>
<path style=" stroke:none;fill-rule:nonzero;fill:rgb(90.196078%,90.196078%,90.196078%);fill-opacity:1;" d="M 32.507812 91.890625 C 36.066406 93.144531 40.015625 92.445312 42.933594 90.050781 C 46.582031 86.984375 47.726562 81.925781 48.660156 77.246094 C 49.578125 72.632812 50.496094 68.015625 51.414062 63.398438 L 45.644531 67.378906 C 41.5 70.238281 37.257812 73.1875 34.386719 77.332031 C 31.515625 81.472656 30.261719 87.128906 32.570312 91.609375 "/>
<path style=" stroke:none;fill-rule:nonzero;fill:rgb(94.901961%,94.901961%,94.901961%);fill-opacity:1;" d="M 33.003906 108.652344 C 32.417969 104.394531 31.820312 100.082031 32.226562 95.78125 C 32.589844 91.957031 33.757812 88.222656 36.125 85.164062 C 37.382812 83.542969 38.914062 82.152344 40.652344 81.058594 C 41.101562 80.769531 41.519531 81.488281 41.070312 81.773438 C 38.066406 83.675781 35.746094 86.480469 34.4375 89.789062 C 32.996094 93.464844 32.761719 97.472656 33.011719 101.378906 C 33.160156 103.742188 33.480469 106.089844 33.800781 108.433594 C 33.855469 108.652344 33.726562 108.875 33.511719 108.945312 C 33.292969 109.003906 33.066406 108.875 33.003906 108.652344 Z M 33.003906 108.652344 "/>
<path style=" stroke:none;fill-rule:nonzero;fill:rgb(90.196078%,90.196078%,90.196078%);fill-opacity:1;" d="M 38.625 101.121094 C 40.148438 103.441406 42.773438 104.796875 45.546875 104.699219 C 49.050781 104.53125 51.972656 102.082031 54.601562 99.757812 L 62.382812 92.878906 L 57.234375 92.628906 C 53.53125 92.453125 49.734375 92.289062 46.207031 93.429688 C 42.679688 94.574219 39.429688 97.328125 38.785156 100.980469 "/>
<path style=" stroke:none;fill-rule:nonzero;fill:rgb(94.901961%,94.901961%,94.901961%);fill-opacity:1;" d="M 31.351562 111.101562 C 34.164062 106.125 37.421875 100.589844 43.242188 98.820312 C 44.863281 98.332031 46.558594 98.15625 48.246094 98.304688 C 48.777344 98.351562 48.644531 99.171875 48.113281 99.125 C 45.289062 98.890625 42.46875 99.636719 40.132812 101.238281 C 37.882812 102.773438 36.128906 104.90625 34.644531 107.167969 C 33.738281 108.554688 32.925781 109.996094 32.109375 111.441406 C 31.851562 111.902344 31.089844 111.566406 31.351562 111.101562 Z M 31.351562 111.101562 "/>
<path style=" stroke:none;fill-rule:nonzero;fill:rgb(94.901961%,94.901961%,94.901961%);fill-opacity:1;" d="M 26.851562 116.34375 C 27.042969 114.101562 28.464844 112.15625 30.539062 111.296875 L 30.539062 108.417969 L 35.359375 108.417969 L 35.359375 111.386719 C 37.324219 112.289062 38.65625 114.183594 38.84375 116.34375 L 39.976562 129.539062 L 25.71875 129.539062 Z M 26.851562 116.34375 "/>
<path style=" stroke:none;fill-rule:nonzero;fill:rgb(90.196078%,90.196078%,90.196078%);fill-opacity:1;" d="M 190.773438 53.335938 L 189.339844 52.734375 L 188.355469 45.535156 L 175.257812 45.535156 L 174.191406 52.703125 L 172.90625 53.347656 C 172.78125 53.410156 172.714844 53.550781 172.746094 53.6875 C 172.78125 53.828125 172.902344 53.925781 173.042969 53.925781 L 190.65625 53.925781 C 190.800781 53.925781 190.925781 53.820312 190.953125 53.679688 C 190.980469 53.535156 190.90625 53.394531 190.773438 53.335938 Z M 190.773438 53.335938 "/>
<path style=" stroke:none;fill-rule:nonzero;fill:rgb(80%,80%,80%);fill-opacity:1;" d="M 214.050781 46.492188 L 149.703125 46.492188 C 149 46.488281 148.433594 45.917969 148.433594 45.214844 L 148.433594 36.128906 L 215.320312 36.128906 L 215.320312 45.214844 C 215.320312 45.917969 214.753906 46.488281 214.050781 46.492188 Z M 214.050781 46.492188 "/>
<path style=" stroke:none;fill-rule:nonzero;fill:rgb(24.705882%,23.921569%,33.72549%);fill-opacity:1;" d="M 215.390625 40.421875 L 148.375 40.421875 L 148.375 1.539062 C 148.375 0.691406 149.0625 0 149.910156 0 L 213.851562 0 C 214.699219 0 215.386719 0.691406 215.390625 1.539062 Z M 215.390625 40.421875 "/>
<path style=" stroke:none;fill-rule:nonzero;fill:rgb(100%,100%,100%);fill-opacity:1;" d="M 211.386719 37.601562 L 152.375 37.601562 C 151.722656 37.597656 151.191406 37.070312 151.191406 36.414062 L 151.191406 4.007812 C 151.191406 3.355469 151.722656 2.824219 152.375 2.820312 L 211.386719 2.820312 C 212.039062 2.824219 212.570312 3.355469 212.570312 4.007812 L 212.570312 36.414062 C 212.570312 37.070312 212.039062 37.597656 211.386719 37.601562 Z M 211.386719 37.601562 "/>
<path style=" stroke:none;fill-rule:nonzero;fill:rgb(100%,71.372549%,71.372549%);fill-opacity:1;" d="M 195.84375 49.035156 C 196.617188 48.320312 197.664062 47.984375 198.703125 48.121094 C 199.746094 48.253906 200.675781 48.84375 201.238281 49.730469 L 209.222656 48.308594 L 211.265625 52.957031 L 199.96875 54.804688 C 198.382812 55.675781 196.398438 55.226562 195.347656 53.753906 C 194.296875 52.28125 194.507812 50.253906 195.84375 49.035156 Z M 195.84375 49.035156 "/>
<path style=" stroke:none;fill-rule:nonzero;fill:rgb(0%,83.137255%,69.019608%);fill-opacity:1;" d="M 203.234375 54.96875 L 211.554688 54.863281 L 212.609375 54.851562 L 229.539062 54.636719 C 229.539062 54.636719 234.136719 50.242188 238.140625 45.722656 L 237.578125 41.65625 C 237.03125 37.667969 235.054688 34.011719 232.019531 31.375 C 226.285156 35.210938 222.960938 42.804688 222.960938 42.804688 L 212.464844 45.320312 L 211.414062 45.574219 L 204.890625 47.132812 Z M 203.234375 54.96875 "/>
<path style=" stroke:none;fill-rule:nonzero;fill:rgb(89.411765%,89.411765%,89.411765%);fill-opacity:1;" d="M 245.832031 79.953125 L 230.300781 79.953125 C 230.300781 80.617188 213.320312 81.160156 213.320312 81.160156 C 212.945312 81.441406 212.605469 81.765625 212.300781 82.125 C 211.394531 83.207031 210.902344 84.578125 210.902344 85.988281 L 210.902344 86.957031 C 210.90625 90.289062 213.601562 92.992188 216.933594 92.992188 L 245.832031 92.992188 C 249.160156 92.988281 251.855469 90.289062 251.859375 86.957031 L 251.859375 85.988281 C 251.855469 82.65625 249.160156 79.957031 245.832031 79.953125 Z M 245.832031 79.953125 "/>
<path style=" stroke:none;fill-rule:nonzero;fill:rgb(89.411765%,89.411765%,89.411765%);fill-opacity:1;" d="M 228.265625 92.753906 L 234.535156 92.753906 L 234.535156 128.996094 L 228.265625 128.996094 Z M 228.265625 92.753906 "/>
<path style=" stroke:none;fill-rule:nonzero;fill:rgb(89.411765%,89.411765%,89.411765%);fill-opacity:1;" d="M 210.421875 128.777344 C 210.421875 129.453125 219.921875 129.039062 231.644531 129.039062 C 243.363281 129.039062 252.863281 129.453125 252.863281 128.777344 C 252.863281 128.097656 243.363281 122.71875 231.644531 122.71875 C 219.921875 122.71875 210.421875 128.097656 210.421875 128.777344 Z M 210.421875 128.777344 "/>
<path style=" stroke:none;fill-rule:nonzero;fill:rgb(100%,71.372549%,71.372549%);fill-opacity:1;" d="M 206.210938 124.636719 L 201.546875 124.636719 L 199.324219 106.609375 L 206.210938 106.609375 Z M 206.210938 124.636719 "/>
<path style=" stroke:none;fill-rule:nonzero;fill:rgb(18.431373%,18.039216%,25.490196%);fill-opacity:1;" d="M 207.402344 129.164062 L 192.355469 129.164062 L 192.355469 128.972656 C 192.355469 125.734375 194.976562 123.109375 198.210938 123.109375 L 207.402344 123.109375 Z M 207.402344 129.164062 "/>
<path style=" stroke:none;fill-rule:nonzero;fill:rgb(100%,71.372549%,71.372549%);fill-opacity:1;" d="M 192.421875 124.636719 L 187.753906 124.636719 L 185.535156 106.609375 L 192.421875 106.609375 Z M 192.421875 124.636719 "/>
<path style=" stroke:none;fill-rule:nonzero;fill:rgb(18.431373%,18.039216%,25.490196%);fill-opacity:1;" d="M 193.609375 129.164062 L 178.566406 129.164062 L 178.566406 128.972656 C 178.566406 125.734375 181.1875 123.109375 184.421875 123.109375 L 193.609375 123.109375 Z M 193.609375 129.164062 "/>
<path style=" stroke:none;fill-rule:nonzero;fill:rgb(100%,71.372549%,71.372549%);fill-opacity:1;" d="M 242.332031 12.734375 C 242.332031 17.222656 238.699219 20.859375 234.21875 20.859375 C 229.738281 20.859375 226.105469 17.222656 226.105469 12.734375 C 226.105469 8.25 229.738281 4.609375 234.21875 4.609375 C 238.699219 4.609375 242.332031 8.25 242.332031 12.734375 Z M 242.332031 12.734375 "/>
<path style=" stroke:none;fill-rule:nonzero;fill:rgb(18.431373%,18.039216%,25.490196%);fill-opacity:1;" d="M 247.347656 68.410156 C 247.347656 68.410156 250.070312 82.824219 239.714844 84.660156 C 229.355469 86.496094 214.40625 87.785156 214.40625 87.785156 L 207.691406 119.160156 L 198.671875 118.351562 C 198.671875 118.351562 199.871094 80.585938 202.820312 77.632812 C 205.769531 74.675781 224.417969 65.832031 224.417969 65.832031 Z M 247.347656 68.410156 "/>
<path style=" stroke:none;fill-rule:nonzero;fill:rgb(18.431373%,18.039216%,25.490196%);fill-opacity:1;" d="M 227.121094 62.367188 L 222.589844 66.917969 C 222.589844 66.917969 189.882812 72.195312 188.621094 79.761719 C 186.714844 91.183594 184.464844 116.023438 184.464844 116.023438 L 194.300781 115.285156 L 198.15625 87.046875 L 213.890625 83.464844 L 231.789062 73.691406 Z M 227.121094 62.367188 "/>
<path style=" stroke:none;fill-rule:nonzero;fill:rgb(18.431373%,18.039216%,25.490196%);fill-opacity:1;" d="M 242.023438 7.886719 C 241.222656 6.371094 240.207031 3.355469 238.589844 2.796875 C 237.691406 2.5 236.765625 2.300781 235.824219 2.207031 L 233.074219 3.265625 L 234.570312 2.101562 C 234.28125 2.082031 233.988281 2.070312 233.699219 2.058594 L 231.84375 2.769531 L 232.792969 2.03125 C 231.0625 2.015625 229.28125 2.195312 227.941406 3.25 C 226.800781 4.148438 225.667969 7.550781 225.484375 8.992188 C 225.289062 10.371094 225.359375 11.777344 225.6875 13.132812 L 226.15625 13.578125 C 226.320312 13.199219 226.445312 12.808594 226.523438 12.402344 C 226.867188 10.878906 227.828125 9.570312 229.183594 8.792969 L 229.207031 8.777344 C 229.996094 8.335938 230.953125 8.355469 231.855469 8.386719 L 236.144531 8.542969 C 237.175781 8.578125 238.285156 8.644531 239.089844 9.292969 C 239.601562 9.769531 240.003906 10.355469 240.269531 11.003906 C 240.667969 11.808594 241.449219 14.859375 241.449219 14.859375 C 241.449219 14.859375 241.890625 14.28125 242.101562 14.710938 C 242.441406 13.59375 242.648438 12.441406 242.71875 11.273438 C 242.785156 10.105469 242.546875 8.933594 242.023438 7.886719 Z M 242.023438 7.886719 "/>
<path style=" stroke:none;fill-rule:nonzero;fill:rgb(100%,71.372549%,71.372549%);fill-opacity:1;" d="M 270.398438 16.304688 C 269.351562 16.375 268.390625 16.902344 267.769531 17.753906 C 267.148438 18.601562 266.9375 19.679688 267.1875 20.703125 L 260.664062 25.523438 L 262.621094 30.207031 L 271.742188 23.269531 C 273.460938 22.722656 274.503906 20.96875 274.160156 19.191406 C 273.816406 17.414062 272.203125 16.171875 270.398438 16.304688 Z M 270.398438 16.304688 "/>
<path style=" stroke:none;fill-rule:nonzero;fill:rgb(0%,83.137255%,69.019608%);fill-opacity:1;" d="M 269.351562 26.144531 L 252.996094 44.335938 C 252.996094 44.335938 245.171875 41.828125 239.125 39.109375 L 236.40625 30.75 C 235.777344 28.8125 235.507812 26.773438 235.613281 24.734375 C 244 22.5 253.75 30.816406 253.75 30.816406 L 265.996094 21.210938 Z M 269.351562 26.144531 "/>
<path style=" stroke:none;fill-rule:nonzero;fill:rgb(0%,83.137255%,69.019608%);fill-opacity:1;" d="M 231.1875 69.75 C 228.269531 68.742188 225.253906 67.699219 221.996094 67.308594 L 221.859375 67.289062 L 221.894531 67.15625 C 225.265625 55.308594 224.425781 47.730469 222.773438 36.34375 C 222.050781 31.300781 224.730469 26.386719 229.355469 24.261719 L 229.375 24.253906 L 238.667969 23.660156 L 238.691406 23.660156 L 245.449219 25.652344 C 247.449219 26.246094 248.808594 28.101562 248.769531 30.1875 C 248.695312 33.933594 248.851562 38.113281 249.015625 42.535156 C 249.386719 52.464844 249.765625 62.730469 247.601562 69.390625 L 247.589844 69.425781 L 247.5625 69.449219 C 245.570312 71.070312 243.078125 71.949219 240.511719 71.929688 C 237.480469 71.929688 234.382812 70.855469 231.1875 69.75 Z M 231.1875 69.75 "/>
<path style=" stroke:none;fill-rule:nonzero;fill:rgb(80%,80%,80%);fill-opacity:1;" d="M 298.667969 129.949219 L 0.433594 129.949219 C 0.195312 129.949219 0 129.757812 0 129.515625 C 0 129.277344 0.195312 129.085938 0.433594 129.085938 L 298.667969 129.085938 C 298.90625 129.085938 299.101562 129.277344 299.101562 129.515625 C 299.101562 129.757812 298.90625 129.949219 298.667969 129.949219 Z M 298.667969 129.949219 "/>
</g>
</svg>
